<mxfile host="Electron" modified="2024-06-16T20:00:19.990Z" agent="Mozilla/5.0 (X11; Linux x86_64) AppleWebKit/537.36 (KHTML, like Gecko) draw.io/24.5.3 Chrome/124.0.6367.207 Electron/30.0.6 Safari/537.36" etag="u-hJpoFF34jF7qU-5QLU" version="24.5.3" type="device">
  <diagram name="Page-1" id="byFEgnmbtFiXtIVblrPx">
    <mxGraphModel dx="3120" dy="2046" grid="1" gridSize="10" guides="1" tooltips="1" connect="1" arrows="1" fold="1" page="1" pageScale="1" pageWidth="850" pageHeight="1100" math="0" shadow="0">
      <root>
        <mxCell id="0" />
        <mxCell id="1" parent="0" />
        <mxCell id="En6Ea1ra5ksNc1CF_G6r-13" style="edgeStyle=orthogonalEdgeStyle;rounded=0;orthogonalLoop=1;jettySize=auto;html=1;" parent="1" source="En6Ea1ra5ksNc1CF_G6r-1" target="En6Ea1ra5ksNc1CF_G6r-12" edge="1">
          <mxGeometry relative="1" as="geometry">
            <Array as="points">
              <mxPoint x="380" y="490" />
              <mxPoint x="380" y="490" />
            </Array>
          </mxGeometry>
        </mxCell>
        <mxCell id="En6Ea1ra5ksNc1CF_G6r-14" style="edgeStyle=orthogonalEdgeStyle;rounded=0;orthogonalLoop=1;jettySize=auto;html=1;" parent="1" source="En6Ea1ra5ksNc1CF_G6r-1" target="En6Ea1ra5ksNc1CF_G6r-11" edge="1">
          <mxGeometry relative="1" as="geometry" />
        </mxCell>
        <mxCell id="En6Ea1ra5ksNc1CF_G6r-18" style="edgeStyle=orthogonalEdgeStyle;rounded=0;orthogonalLoop=1;jettySize=auto;html=1;" parent="1" source="En6Ea1ra5ksNc1CF_G6r-1" target="En6Ea1ra5ksNc1CF_G6r-17" edge="1">
          <mxGeometry relative="1" as="geometry" />
        </mxCell>
        <mxCell id="En6Ea1ra5ksNc1CF_G6r-106" style="edgeStyle=none;rounded=0;orthogonalLoop=1;jettySize=auto;html=1;strokeColor=default;align=center;verticalAlign=middle;fontFamily=Helvetica;fontSize=11;fontColor=default;labelBackgroundColor=default;endArrow=classic;" parent="1" source="En6Ea1ra5ksNc1CF_G6r-1" target="En6Ea1ra5ksNc1CF_G6r-105" edge="1">
          <mxGeometry relative="1" as="geometry" />
        </mxCell>
        <mxCell id="En6Ea1ra5ksNc1CF_G6r-1" value="&lt;div&gt;First Formulation&lt;/div&gt;&lt;div&gt;- Minimize surface&lt;/div&gt;&lt;div&gt;given boundary curve&lt;br&gt;&lt;/div&gt;" style="rounded=1;whiteSpace=wrap;html=1;" parent="1" vertex="1">
          <mxGeometry x="320" y="570" width="120" height="60" as="geometry" />
        </mxCell>
        <mxCell id="En6Ea1ra5ksNc1CF_G6r-6" style="edgeStyle=orthogonalEdgeStyle;rounded=0;orthogonalLoop=1;jettySize=auto;html=1;endArrow=none;endFill=0;" parent="1" source="En6Ea1ra5ksNc1CF_G6r-3" target="En6Ea1ra5ksNc1CF_G6r-5" edge="1">
          <mxGeometry relative="1" as="geometry" />
        </mxCell>
        <mxCell id="En6Ea1ra5ksNc1CF_G6r-3" value="Dirac delta Form" style="rounded=1;whiteSpace=wrap;html=1;" parent="1" vertex="1">
          <mxGeometry x="320" y="230" width="120" height="60" as="geometry" />
        </mxCell>
        <mxCell id="En6Ea1ra5ksNc1CF_G6r-9" style="edgeStyle=orthogonalEdgeStyle;rounded=0;orthogonalLoop=1;jettySize=auto;html=1;" parent="1" source="En6Ea1ra5ksNc1CF_G6r-5" target="En6Ea1ra5ksNc1CF_G6r-8" edge="1">
          <mxGeometry relative="1" as="geometry" />
        </mxCell>
        <mxCell id="En6Ea1ra5ksNc1CF_G6r-5" value="Abuse of notation, actually current" style="rounded=1;whiteSpace=wrap;html=1;" parent="1" vertex="1">
          <mxGeometry x="630" y="230" width="120" height="60" as="geometry" />
        </mxCell>
        <mxCell id="En6Ea1ra5ksNc1CF_G6r-8" value="current: functionional on the space of compactly supported differential k-forms on a smooth manifold M" style="rounded=1;whiteSpace=wrap;html=1;" parent="1" vertex="1">
          <mxGeometry x="590" y="30" width="200" height="60" as="geometry" />
        </mxCell>
        <mxCell id="En6Ea1ra5ksNc1CF_G6r-27" style="edgeStyle=orthogonalEdgeStyle;rounded=0;orthogonalLoop=1;jettySize=auto;html=1;" parent="1" source="En6Ea1ra5ksNc1CF_G6r-11" target="En6Ea1ra5ksNc1CF_G6r-16" edge="1">
          <mxGeometry relative="1" as="geometry" />
        </mxCell>
        <mxCell id="En6Ea1ra5ksNc1CF_G6r-47" style="rounded=0;orthogonalLoop=1;jettySize=auto;html=1;" parent="1" source="En6Ea1ra5ksNc1CF_G6r-11" target="En6Ea1ra5ksNc1CF_G6r-45" edge="1">
          <mxGeometry relative="1" as="geometry" />
        </mxCell>
        <mxCell id="En6Ea1ra5ksNc1CF_G6r-11" value="Need method to descibe area of surface regardless of curvature" style="rounded=1;whiteSpace=wrap;html=1;" parent="1" vertex="1">
          <mxGeometry x="-330" y="570" width="120" height="60" as="geometry" />
        </mxCell>
        <mxCell id="En6Ea1ra5ksNc1CF_G6r-15" style="edgeStyle=orthogonalEdgeStyle;rounded=0;orthogonalLoop=1;jettySize=auto;html=1;" parent="1" source="En6Ea1ra5ksNc1CF_G6r-12" target="En6Ea1ra5ksNc1CF_G6r-3" edge="1">
          <mxGeometry relative="1" as="geometry" />
        </mxCell>
        <mxCell id="En6Ea1ra5ksNc1CF_G6r-12" value="Need method to describe surface itself" style="rounded=1;whiteSpace=wrap;html=1;" parent="1" vertex="1">
          <mxGeometry x="320" y="400" width="120" height="60" as="geometry" />
        </mxCell>
        <mxCell id="En6Ea1ra5ksNc1CF_G6r-30" style="edgeStyle=orthogonalEdgeStyle;rounded=0;orthogonalLoop=1;jettySize=auto;html=1;" parent="1" source="En6Ea1ra5ksNc1CF_G6r-16" target="En6Ea1ra5ksNc1CF_G6r-29" edge="1">
          <mxGeometry relative="1" as="geometry" />
        </mxCell>
        <mxCell id="En6Ea1ra5ksNc1CF_G6r-42" style="edgeStyle=orthogonalEdgeStyle;rounded=0;orthogonalLoop=1;jettySize=auto;html=1;" parent="1" source="En6Ea1ra5ksNc1CF_G6r-16" target="En6Ea1ra5ksNc1CF_G6r-41" edge="1">
          <mxGeometry relative="1" as="geometry">
            <mxPoint x="-110" y="320" as="targetPoint" />
          </mxGeometry>
        </mxCell>
        <mxCell id="En6Ea1ra5ksNc1CF_G6r-16" value="Exterior Algebra" style="rounded=1;whiteSpace=wrap;html=1;" parent="1" vertex="1">
          <mxGeometry x="-330" y="390" width="120" height="60" as="geometry" />
        </mxCell>
        <mxCell id="En6Ea1ra5ksNc1CF_G6r-20" style="edgeStyle=orthogonalEdgeStyle;rounded=0;orthogonalLoop=1;jettySize=auto;html=1;" parent="1" source="En6Ea1ra5ksNc1CF_G6r-17" target="En6Ea1ra5ksNc1CF_G6r-19" edge="1">
          <mxGeometry relative="1" as="geometry" />
        </mxCell>
        <mxCell id="dsKGTwDM3gqNHKsCHxA4-2" style="rounded=0;orthogonalLoop=1;jettySize=auto;html=1;" edge="1" parent="1" source="En6Ea1ra5ksNc1CF_G6r-17" target="dsKGTwDM3gqNHKsCHxA4-1">
          <mxGeometry relative="1" as="geometry" />
        </mxCell>
        <mxCell id="En6Ea1ra5ksNc1CF_G6r-17" value="Computation" style="rounded=1;whiteSpace=wrap;html=1;" parent="1" vertex="1">
          <mxGeometry x="610" y="570" width="120" height="60" as="geometry" />
        </mxCell>
        <mxCell id="En6Ea1ra5ksNc1CF_G6r-22" style="edgeStyle=orthogonalEdgeStyle;rounded=0;orthogonalLoop=1;jettySize=auto;html=1;" parent="1" source="En6Ea1ra5ksNc1CF_G6r-19" target="En6Ea1ra5ksNc1CF_G6r-21" edge="1">
          <mxGeometry relative="1" as="geometry" />
        </mxCell>
        <mxCell id="En6Ea1ra5ksNc1CF_G6r-19" value="Poisson solver for correct forms on boundary" style="rounded=1;whiteSpace=wrap;html=1;" parent="1" vertex="1">
          <mxGeometry x="910" y="570" width="120" height="60" as="geometry" />
        </mxCell>
        <mxCell id="En6Ea1ra5ksNc1CF_G6r-24" style="edgeStyle=orthogonalEdgeStyle;rounded=0;orthogonalLoop=1;jettySize=auto;html=1;" parent="1" source="En6Ea1ra5ksNc1CF_G6r-21" target="En6Ea1ra5ksNc1CF_G6r-23" edge="1">
          <mxGeometry relative="1" as="geometry" />
        </mxCell>
        <mxCell id="En6Ea1ra5ksNc1CF_G6r-21" value="Needs FFT" style="rounded=1;whiteSpace=wrap;html=1;" parent="1" vertex="1">
          <mxGeometry x="1160" y="570" width="120" height="60" as="geometry" />
        </mxCell>
        <mxCell id="En6Ea1ra5ksNc1CF_G6r-26" style="edgeStyle=orthogonalEdgeStyle;rounded=0;orthogonalLoop=1;jettySize=auto;html=1;" parent="1" source="En6Ea1ra5ksNc1CF_G6r-23" target="En6Ea1ra5ksNc1CF_G6r-25" edge="1">
          <mxGeometry relative="1" as="geometry" />
        </mxCell>
        <mxCell id="En6Ea1ra5ksNc1CF_G6r-23" value="Restrict solution to correct homology class" style="rounded=1;whiteSpace=wrap;html=1;" parent="1" vertex="1">
          <mxGeometry x="1160" y="430" width="120" height="60" as="geometry" />
        </mxCell>
        <mxCell id="En6Ea1ra5ksNc1CF_G6r-25" value="Topology" style="rounded=1;whiteSpace=wrap;html=1;" parent="1" vertex="1">
          <mxGeometry x="1420" y="430" width="120" height="60" as="geometry" />
        </mxCell>
        <mxCell id="En6Ea1ra5ksNc1CF_G6r-35" style="rounded=0;orthogonalLoop=1;jettySize=auto;html=1;" parent="1" source="En6Ea1ra5ksNc1CF_G6r-29" target="En6Ea1ra5ksNc1CF_G6r-34" edge="1">
          <mxGeometry relative="1" as="geometry" />
        </mxCell>
        <mxCell id="En6Ea1ra5ksNc1CF_G6r-39" style="edgeStyle=orthogonalEdgeStyle;rounded=0;orthogonalLoop=1;jettySize=auto;html=1;" parent="1" source="En6Ea1ra5ksNc1CF_G6r-29" target="En6Ea1ra5ksNc1CF_G6r-38" edge="1">
          <mxGeometry relative="1" as="geometry" />
        </mxCell>
        <mxCell id="En6Ea1ra5ksNc1CF_G6r-29" value="&lt;div&gt;k-vectors to&lt;/div&gt;&lt;div&gt;represent little volumes&lt;br&gt;&lt;/div&gt;" style="rounded=1;whiteSpace=wrap;html=1;" parent="1" vertex="1">
          <mxGeometry x="-330" y="260" width="120" height="60" as="geometry" />
        </mxCell>
        <mxCell id="En6Ea1ra5ksNc1CF_G6r-32" style="edgeStyle=orthogonalEdgeStyle;rounded=0;orthogonalLoop=1;jettySize=auto;html=1;" parent="1" source="En6Ea1ra5ksNc1CF_G6r-31" target="En6Ea1ra5ksNc1CF_G6r-11" edge="1">
          <mxGeometry relative="1" as="geometry" />
        </mxCell>
        <mxCell id="En6Ea1ra5ksNc1CF_G6r-36" style="edgeStyle=orthogonalEdgeStyle;rounded=0;orthogonalLoop=1;jettySize=auto;html=1;" parent="1" source="En6Ea1ra5ksNc1CF_G6r-31" target="En6Ea1ra5ksNc1CF_G6r-33" edge="1">
          <mxGeometry relative="1" as="geometry" />
        </mxCell>
        <mxCell id="En6Ea1ra5ksNc1CF_G6r-83" style="edgeStyle=none;rounded=0;orthogonalLoop=1;jettySize=auto;html=1;strokeColor=default;align=center;verticalAlign=middle;fontFamily=Helvetica;fontSize=11;fontColor=default;labelBackgroundColor=default;endArrow=classic;" parent="1" source="En6Ea1ra5ksNc1CF_G6r-31" target="En6Ea1ra5ksNc1CF_G6r-70" edge="1">
          <mxGeometry relative="1" as="geometry" />
        </mxCell>
        <mxCell id="En6Ea1ra5ksNc1CF_G6r-31" value="&lt;div&gt;Vector Calculus&lt;/div&gt;&lt;div&gt;- how do vectors change in space&lt;/div&gt;" style="rounded=1;whiteSpace=wrap;html=1;" parent="1" vertex="1">
          <mxGeometry x="-550" y="570" width="120" height="60" as="geometry" />
        </mxCell>
        <mxCell id="En6Ea1ra5ksNc1CF_G6r-40" style="edgeStyle=orthogonalEdgeStyle;rounded=0;orthogonalLoop=1;jettySize=auto;html=1;" parent="1" source="En6Ea1ra5ksNc1CF_G6r-33" target="En6Ea1ra5ksNc1CF_G6r-16" edge="1">
          <mxGeometry relative="1" as="geometry" />
        </mxCell>
        <mxCell id="En6Ea1ra5ksNc1CF_G6r-55" style="edgeStyle=orthogonalEdgeStyle;rounded=0;orthogonalLoop=1;jettySize=auto;html=1;" parent="1" source="En6Ea1ra5ksNc1CF_G6r-33" target="En6Ea1ra5ksNc1CF_G6r-54" edge="1">
          <mxGeometry relative="1" as="geometry" />
        </mxCell>
        <mxCell id="En6Ea1ra5ksNc1CF_G6r-62" style="edgeStyle=orthogonalEdgeStyle;rounded=0;orthogonalLoop=1;jettySize=auto;html=1;" parent="1" source="En6Ea1ra5ksNc1CF_G6r-33" target="En6Ea1ra5ksNc1CF_G6r-61" edge="1">
          <mxGeometry relative="1" as="geometry" />
        </mxCell>
        <mxCell id="En6Ea1ra5ksNc1CF_G6r-90" style="edgeStyle=none;rounded=0;orthogonalLoop=1;jettySize=auto;html=1;strokeColor=default;align=center;verticalAlign=middle;fontFamily=Helvetica;fontSize=11;fontColor=default;labelBackgroundColor=default;endArrow=classic;" parent="1" source="En6Ea1ra5ksNc1CF_G6r-17" target="En6Ea1ra5ksNc1CF_G6r-89" edge="1">
          <mxGeometry relative="1" as="geometry" />
        </mxCell>
        <mxCell id="En6Ea1ra5ksNc1CF_G6r-33" value="&lt;div&gt;Exterior Calculus&lt;/div&gt;&lt;div&gt;how do k-vectors change in space&lt;br&gt;&lt;/div&gt;" style="rounded=1;whiteSpace=wrap;html=1;" parent="1" vertex="1">
          <mxGeometry x="-550" y="390" width="120" height="60" as="geometry" />
        </mxCell>
        <mxCell id="En6Ea1ra5ksNc1CF_G6r-65" style="edgeStyle=none;rounded=0;orthogonalLoop=1;jettySize=auto;html=1;strokeColor=default;align=center;verticalAlign=middle;fontFamily=Helvetica;fontSize=11;fontColor=default;labelBackgroundColor=default;endArrow=classic;" parent="1" source="En6Ea1ra5ksNc1CF_G6r-34" target="En6Ea1ra5ksNc1CF_G6r-61" edge="1">
          <mxGeometry relative="1" as="geometry" />
        </mxCell>
        <mxCell id="En6Ea1ra5ksNc1CF_G6r-34" value="&lt;div&gt;k-forms to&lt;/div&gt;&lt;div&gt;measure k-vectors&lt;br&gt;&lt;/div&gt;" style="rounded=1;whiteSpace=wrap;html=1;" parent="1" vertex="1">
          <mxGeometry x="-550" y="160" width="120" height="60" as="geometry" />
        </mxCell>
        <mxCell id="En6Ea1ra5ksNc1CF_G6r-38" value="direction and magnitude" style="rounded=1;whiteSpace=wrap;html=1;" parent="1" vertex="1">
          <mxGeometry x="-330" y="160" width="120" height="60" as="geometry" />
        </mxCell>
        <mxCell id="En6Ea1ra5ksNc1CF_G6r-41" value="wedge product - algebra to combine vectors into k-vectors" style="rounded=1;whiteSpace=wrap;html=1;" parent="1" vertex="1">
          <mxGeometry x="-170" y="260" width="120" height="60" as="geometry" />
        </mxCell>
        <mxCell id="En6Ea1ra5ksNc1CF_G6r-86" style="edgeStyle=none;rounded=0;orthogonalLoop=1;jettySize=auto;html=1;strokeColor=default;align=center;verticalAlign=middle;fontFamily=Helvetica;fontSize=11;fontColor=default;labelBackgroundColor=default;endArrow=classic;" parent="1" source="En6Ea1ra5ksNc1CF_G6r-43" target="En6Ea1ra5ksNc1CF_G6r-16" edge="1">
          <mxGeometry relative="1" as="geometry" />
        </mxCell>
        <mxCell id="En6Ea1ra5ksNc1CF_G6r-43" value="&lt;div&gt;Tensor algebra-&lt;/div&gt;&lt;div&gt;exterior algebra is just special case&lt;br&gt;&lt;/div&gt;" style="rounded=1;whiteSpace=wrap;html=1;" parent="1" vertex="1">
          <mxGeometry x="-150" y="480" width="120" height="60" as="geometry" />
        </mxCell>
        <mxCell id="En6Ea1ra5ksNc1CF_G6r-52" style="edgeStyle=orthogonalEdgeStyle;rounded=0;orthogonalLoop=1;jettySize=auto;html=1;" parent="1" source="En6Ea1ra5ksNc1CF_G6r-45" target="En6Ea1ra5ksNc1CF_G6r-51" edge="1">
          <mxGeometry relative="1" as="geometry" />
        </mxCell>
        <mxCell id="En6Ea1ra5ksNc1CF_G6r-110" style="edgeStyle=none;rounded=0;orthogonalLoop=1;jettySize=auto;html=1;strokeColor=default;align=center;verticalAlign=middle;fontFamily=Helvetica;fontSize=11;fontColor=default;labelBackgroundColor=default;endArrow=classic;" parent="1" source="En6Ea1ra5ksNc1CF_G6r-45" target="En6Ea1ra5ksNc1CF_G6r-109" edge="1">
          <mxGeometry relative="1" as="geometry" />
        </mxCell>
        <mxCell id="En6Ea1ra5ksNc1CF_G6r-114" style="edgeStyle=none;rounded=0;orthogonalLoop=1;jettySize=auto;html=1;strokeColor=default;align=center;verticalAlign=middle;fontFamily=Helvetica;fontSize=11;fontColor=default;labelBackgroundColor=default;endArrow=classic;" parent="1" source="En6Ea1ra5ksNc1CF_G6r-45" target="En6Ea1ra5ksNc1CF_G6r-111" edge="1">
          <mxGeometry relative="1" as="geometry" />
        </mxCell>
        <mxCell id="En6Ea1ra5ksNc1CF_G6r-45" value="Curvature: Differential Geometry" style="rounded=1;whiteSpace=wrap;html=1;" parent="1" vertex="1">
          <mxGeometry x="-330" y="710" width="120" height="60" as="geometry" />
        </mxCell>
        <mxCell id="En6Ea1ra5ksNc1CF_G6r-48" value="On manifold, define Hodge star to bring geomety back" style="rounded=1;whiteSpace=wrap;html=1;" parent="1" vertex="1">
          <mxGeometry x="-550" y="10" width="120" height="60" as="geometry" />
        </mxCell>
        <mxCell id="En6Ea1ra5ksNc1CF_G6r-56" style="edgeStyle=orthogonalEdgeStyle;rounded=0;orthogonalLoop=1;jettySize=auto;html=1;" parent="1" source="En6Ea1ra5ksNc1CF_G6r-51" target="En6Ea1ra5ksNc1CF_G6r-54" edge="1">
          <mxGeometry relative="1" as="geometry" />
        </mxCell>
        <mxCell id="En6Ea1ra5ksNc1CF_G6r-60" value="generalize" style="edgeLabel;html=1;align=center;verticalAlign=middle;resizable=0;points=[];" parent="En6Ea1ra5ksNc1CF_G6r-56" vertex="1" connectable="0">
          <mxGeometry y="3" relative="1" as="geometry">
            <mxPoint x="-80" as="offset" />
          </mxGeometry>
        </mxCell>
        <mxCell id="En6Ea1ra5ksNc1CF_G6r-68" style="edgeStyle=none;rounded=0;orthogonalLoop=1;jettySize=auto;html=1;strokeColor=default;align=center;verticalAlign=middle;fontFamily=Helvetica;fontSize=11;fontColor=default;labelBackgroundColor=default;endArrow=classic;" parent="1" source="En6Ea1ra5ksNc1CF_G6r-51" target="En6Ea1ra5ksNc1CF_G6r-67" edge="1">
          <mxGeometry relative="1" as="geometry" />
        </mxCell>
        <mxCell id="En6Ea1ra5ksNc1CF_G6r-51" value="Pushforward/differential of smooth functions (0-forms" style="rounded=1;whiteSpace=wrap;html=1;" parent="1" vertex="1">
          <mxGeometry x="-1110" y="390" width="120" height="60" as="geometry" />
        </mxCell>
        <mxCell id="En6Ea1ra5ksNc1CF_G6r-78" style="edgeStyle=none;rounded=0;orthogonalLoop=1;jettySize=auto;html=1;strokeColor=default;align=center;verticalAlign=middle;fontFamily=Helvetica;fontSize=11;fontColor=default;labelBackgroundColor=default;endArrow=classic;" parent="1" source="En6Ea1ra5ksNc1CF_G6r-54" target="En6Ea1ra5ksNc1CF_G6r-77" edge="1">
          <mxGeometry relative="1" as="geometry" />
        </mxCell>
        <mxCell id="En6Ea1ra5ksNc1CF_G6r-92" style="edgeStyle=none;rounded=0;orthogonalLoop=1;jettySize=auto;html=1;strokeColor=default;align=center;verticalAlign=middle;fontFamily=Helvetica;fontSize=11;fontColor=default;labelBackgroundColor=default;endArrow=classic;" parent="1" source="En6Ea1ra5ksNc1CF_G6r-54" target="En6Ea1ra5ksNc1CF_G6r-91" edge="1">
          <mxGeometry relative="1" as="geometry" />
        </mxCell>
        <mxCell id="En6Ea1ra5ksNc1CF_G6r-120" style="edgeStyle=none;rounded=0;orthogonalLoop=1;jettySize=auto;html=1;strokeColor=default;align=center;verticalAlign=middle;fontFamily=Helvetica;fontSize=11;fontColor=default;labelBackgroundColor=default;endArrow=classic;" parent="1" source="En6Ea1ra5ksNc1CF_G6r-54" target="En6Ea1ra5ksNc1CF_G6r-119" edge="1">
          <mxGeometry relative="1" as="geometry" />
        </mxCell>
        <mxCell id="En6Ea1ra5ksNc1CF_G6r-54" value="&lt;div&gt;Define Derivative&lt;/div&gt;&lt;div&gt;- Exterior Derivative&lt;br&gt;&lt;/div&gt;" style="rounded=1;whiteSpace=wrap;html=1;" parent="1" vertex="1">
          <mxGeometry x="-750" y="390" width="120" height="60" as="geometry" />
        </mxCell>
        <mxCell id="En6Ea1ra5ksNc1CF_G6r-61" value="differential k-forms" style="rounded=1;whiteSpace=wrap;html=1;" parent="1" vertex="1">
          <mxGeometry x="-550" y="280" width="120" height="60" as="geometry" />
        </mxCell>
        <mxCell id="En6Ea1ra5ksNc1CF_G6r-67" value="carries vectors between tangent spaces- can define derivative" style="rounded=1;whiteSpace=wrap;html=1;fontFamily=Helvetica;fontSize=11;fontColor=default;labelBackgroundColor=default;" parent="1" vertex="1">
          <mxGeometry x="-1120" y="230" width="120" height="60" as="geometry" />
        </mxCell>
        <mxCell id="En6Ea1ra5ksNc1CF_G6r-72" style="edgeStyle=none;rounded=0;orthogonalLoop=1;jettySize=auto;html=1;strokeColor=default;align=center;verticalAlign=middle;fontFamily=Helvetica;fontSize=11;fontColor=default;labelBackgroundColor=default;endArrow=classic;" parent="1" source="En6Ea1ra5ksNc1CF_G6r-70" target="En6Ea1ra5ksNc1CF_G6r-54" edge="1">
          <mxGeometry relative="1" as="geometry" />
        </mxCell>
        <mxCell id="En6Ea1ra5ksNc1CF_G6r-84" value="generalize" style="edgeLabel;html=1;align=center;verticalAlign=middle;resizable=0;points=[];fontFamily=Helvetica;fontSize=11;fontColor=default;labelBackgroundColor=default;" parent="En6Ea1ra5ksNc1CF_G6r-72" vertex="1" connectable="0">
          <mxGeometry x="0.25" y="-4" relative="1" as="geometry">
            <mxPoint as="offset" />
          </mxGeometry>
        </mxCell>
        <mxCell id="En6Ea1ra5ksNc1CF_G6r-74" style="edgeStyle=none;rounded=0;orthogonalLoop=1;jettySize=auto;html=1;strokeColor=default;align=center;verticalAlign=middle;fontFamily=Helvetica;fontSize=11;fontColor=default;labelBackgroundColor=default;endArrow=classic;" parent="1" source="En6Ea1ra5ksNc1CF_G6r-70" target="En6Ea1ra5ksNc1CF_G6r-73" edge="1">
          <mxGeometry relative="1" as="geometry" />
        </mxCell>
        <mxCell id="En6Ea1ra5ksNc1CF_G6r-70" value="&lt;div&gt;Derivatives of vector fields: div, grad, curl, laplacian&lt;br&gt;&lt;/div&gt;" style="rounded=1;whiteSpace=wrap;html=1;fontFamily=Helvetica;fontSize=11;fontColor=default;labelBackgroundColor=default;" parent="1" vertex="1">
          <mxGeometry x="-750" y="570" width="120" height="60" as="geometry" />
        </mxCell>
        <mxCell id="En6Ea1ra5ksNc1CF_G6r-79" style="edgeStyle=none;rounded=0;orthogonalLoop=1;jettySize=auto;html=1;strokeColor=default;align=center;verticalAlign=middle;fontFamily=Helvetica;fontSize=11;fontColor=default;labelBackgroundColor=default;endArrow=classic;" parent="1" source="En6Ea1ra5ksNc1CF_G6r-73" target="En6Ea1ra5ksNc1CF_G6r-77" edge="1">
          <mxGeometry relative="1" as="geometry" />
        </mxCell>
        <mxCell id="En6Ea1ra5ksNc1CF_G6r-73" value="Classical Integral Theorems" style="rounded=1;whiteSpace=wrap;html=1;fontFamily=Helvetica;fontSize=11;fontColor=default;labelBackgroundColor=default;" parent="1" vertex="1">
          <mxGeometry x="-910" y="640" width="120" height="60" as="geometry" />
        </mxCell>
        <mxCell id="En6Ea1ra5ksNc1CF_G6r-88" style="edgeStyle=none;rounded=0;orthogonalLoop=1;jettySize=auto;html=1;strokeColor=default;align=center;verticalAlign=middle;fontFamily=Helvetica;fontSize=11;fontColor=default;labelBackgroundColor=default;endArrow=classic;" parent="1" source="En6Ea1ra5ksNc1CF_G6r-77" target="En6Ea1ra5ksNc1CF_G6r-87" edge="1">
          <mxGeometry relative="1" as="geometry" />
        </mxCell>
        <mxCell id="En6Ea1ra5ksNc1CF_G6r-77" value="Generalized stokes Theorem" style="rounded=1;whiteSpace=wrap;html=1;fontFamily=Helvetica;fontSize=11;fontColor=default;labelBackgroundColor=default;" parent="1" vertex="1">
          <mxGeometry x="-910" y="480" width="120" height="60" as="geometry" />
        </mxCell>
        <mxCell id="En6Ea1ra5ksNc1CF_G6r-87" value="vector area needs only calculation of boundary" style="rounded=1;whiteSpace=wrap;html=1;fontFamily=Helvetica;fontSize=11;fontColor=default;labelBackgroundColor=default;" parent="1" vertex="1">
          <mxGeometry x="-1020" y="560" width="120" height="60" as="geometry" />
        </mxCell>
        <mxCell id="En6Ea1ra5ksNc1CF_G6r-117" style="edgeStyle=none;rounded=0;orthogonalLoop=1;jettySize=auto;html=1;strokeColor=default;align=center;verticalAlign=middle;fontFamily=Helvetica;fontSize=11;fontColor=default;labelBackgroundColor=default;endArrow=classic;" parent="1" source="En6Ea1ra5ksNc1CF_G6r-89" target="En6Ea1ra5ksNc1CF_G6r-116" edge="1">
          <mxGeometry relative="1" as="geometry" />
        </mxCell>
        <mxCell id="En6Ea1ra5ksNc1CF_G6r-89" value="&lt;div&gt;Discretize in nice way&lt;/div&gt;&lt;div&gt;Discrete Exterior Calculus&lt;br&gt;&lt;/div&gt;" style="rounded=1;whiteSpace=wrap;html=1;fontFamily=Helvetica;fontSize=11;fontColor=default;labelBackgroundColor=default;" parent="1" vertex="1">
          <mxGeometry x="610" y="760" width="120" height="60" as="geometry" />
        </mxCell>
        <mxCell id="En6Ea1ra5ksNc1CF_G6r-94" style="edgeStyle=none;rounded=0;orthogonalLoop=1;jettySize=auto;html=1;strokeColor=default;align=center;verticalAlign=middle;fontFamily=Helvetica;fontSize=11;fontColor=default;labelBackgroundColor=default;endArrow=classic;" parent="1" source="En6Ea1ra5ksNc1CF_G6r-91" target="En6Ea1ra5ksNc1CF_G6r-77" edge="1">
          <mxGeometry relative="1" as="geometry" />
        </mxCell>
        <mxCell id="En6Ea1ra5ksNc1CF_G6r-96" style="edgeStyle=none;rounded=0;orthogonalLoop=1;jettySize=auto;html=1;strokeColor=default;align=center;verticalAlign=middle;fontFamily=Helvetica;fontSize=11;fontColor=default;labelBackgroundColor=default;endArrow=classic;" parent="1" source="En6Ea1ra5ksNc1CF_G6r-91" target="En6Ea1ra5ksNc1CF_G6r-95" edge="1">
          <mxGeometry relative="1" as="geometry" />
        </mxCell>
        <mxCell id="En6Ea1ra5ksNc1CF_G6r-91" value="Connection to Boundary operator" style="rounded=1;whiteSpace=wrap;html=1;fontFamily=Helvetica;fontSize=11;fontColor=default;labelBackgroundColor=default;" parent="1" vertex="1">
          <mxGeometry x="-910" y="310" width="120" height="60" as="geometry" />
        </mxCell>
        <mxCell id="En6Ea1ra5ksNc1CF_G6r-98" style="edgeStyle=none;rounded=0;orthogonalLoop=1;jettySize=auto;html=1;strokeColor=default;align=center;verticalAlign=middle;fontFamily=Helvetica;fontSize=11;fontColor=default;labelBackgroundColor=default;endArrow=classic;" parent="1" source="En6Ea1ra5ksNc1CF_G6r-95" target="En6Ea1ra5ksNc1CF_G6r-97" edge="1">
          <mxGeometry relative="1" as="geometry" />
        </mxCell>
        <mxCell id="En6Ea1ra5ksNc1CF_G6r-95" value="Connection to Boundary operator" style="rounded=1;whiteSpace=wrap;html=1;fontFamily=Helvetica;fontSize=11;fontColor=default;labelBackgroundColor=default;" parent="1" vertex="1">
          <mxGeometry x="-970" y="160" width="120" height="60" as="geometry" />
        </mxCell>
        <mxCell id="En6Ea1ra5ksNc1CF_G6r-101" style="edgeStyle=none;rounded=0;orthogonalLoop=1;jettySize=auto;html=1;strokeColor=default;align=center;verticalAlign=middle;fontFamily=Helvetica;fontSize=11;fontColor=default;labelBackgroundColor=default;endArrow=classic;" parent="1" source="En6Ea1ra5ksNc1CF_G6r-97" target="En6Ea1ra5ksNc1CF_G6r-100" edge="1">
          <mxGeometry relative="1" as="geometry" />
        </mxCell>
        <mxCell id="En6Ea1ra5ksNc1CF_G6r-97" value="De Rham homology Groups" style="rounded=1;whiteSpace=wrap;html=1;fontFamily=Helvetica;fontSize=11;fontColor=default;labelBackgroundColor=default;" parent="1" vertex="1">
          <mxGeometry x="-980" y="40" width="120" height="60" as="geometry" />
        </mxCell>
        <mxCell id="En6Ea1ra5ksNc1CF_G6r-100" value="Connection to Topology" style="rounded=1;whiteSpace=wrap;html=1;fontFamily=Helvetica;fontSize=11;fontColor=default;labelBackgroundColor=default;" parent="1" vertex="1">
          <mxGeometry x="-980" y="-110" width="120" height="60" as="geometry" />
        </mxCell>
        <mxCell id="En6Ea1ra5ksNc1CF_G6r-104" style="edgeStyle=none;rounded=0;orthogonalLoop=1;jettySize=auto;html=1;strokeColor=default;align=center;verticalAlign=middle;fontFamily=Helvetica;fontSize=11;fontColor=default;labelBackgroundColor=default;endArrow=classic;" parent="1" source="En6Ea1ra5ksNc1CF_G6r-102" target="En6Ea1ra5ksNc1CF_G6r-8" edge="1">
          <mxGeometry relative="1" as="geometry" />
        </mxCell>
        <mxCell id="En6Ea1ra5ksNc1CF_G6r-102" value="&lt;div&gt;Measure Theory:&lt;/div&gt;&lt;div&gt;Measure to strictly define delta function&lt;br&gt;&lt;/div&gt;" style="rounded=1;whiteSpace=wrap;html=1;fontFamily=Helvetica;fontSize=11;fontColor=default;labelBackgroundColor=default;" parent="1" vertex="1">
          <mxGeometry x="930" y="30" width="120" height="60" as="geometry" />
        </mxCell>
        <mxCell id="En6Ea1ra5ksNc1CF_G6r-105" value="&lt;div&gt;minimal surface:&lt;/div&gt;&lt;div&gt;&amp;nbsp;0 mean curvature&lt;/div&gt;" style="rounded=1;whiteSpace=wrap;html=1;fontFamily=Helvetica;fontSize=11;fontColor=default;labelBackgroundColor=default;" parent="1" vertex="1">
          <mxGeometry x="320" y="710" width="120" height="60" as="geometry" />
        </mxCell>
        <mxCell id="En6Ea1ra5ksNc1CF_G6r-112" style="edgeStyle=none;rounded=0;orthogonalLoop=1;jettySize=auto;html=1;strokeColor=default;align=center;verticalAlign=middle;fontFamily=Helvetica;fontSize=11;fontColor=default;labelBackgroundColor=default;endArrow=classic;" parent="1" source="En6Ea1ra5ksNc1CF_G6r-109" target="En6Ea1ra5ksNc1CF_G6r-111" edge="1">
          <mxGeometry relative="1" as="geometry" />
        </mxCell>
        <mxCell id="En6Ea1ra5ksNc1CF_G6r-115" value="Eulers Theorem" style="edgeLabel;html=1;align=center;verticalAlign=middle;resizable=0;points=[];fontFamily=Helvetica;fontSize=11;fontColor=default;labelBackgroundColor=default;" parent="En6Ea1ra5ksNc1CF_G6r-112" vertex="1" connectable="0">
          <mxGeometry x="-0.2011" y="1" relative="1" as="geometry">
            <mxPoint as="offset" />
          </mxGeometry>
        </mxCell>
        <mxCell id="En6Ea1ra5ksNc1CF_G6r-109" value="Principal Curvature" style="rounded=1;whiteSpace=wrap;html=1;fontFamily=Helvetica;fontSize=11;fontColor=default;labelBackgroundColor=default;" parent="1" vertex="1">
          <mxGeometry x="-330" y="870" width="120" height="60" as="geometry" />
        </mxCell>
        <mxCell id="En6Ea1ra5ksNc1CF_G6r-113" style="edgeStyle=none;rounded=0;orthogonalLoop=1;jettySize=auto;html=1;strokeColor=default;align=center;verticalAlign=middle;fontFamily=Helvetica;fontSize=11;fontColor=default;labelBackgroundColor=default;endArrow=classic;" parent="1" source="En6Ea1ra5ksNc1CF_G6r-111" target="En6Ea1ra5ksNc1CF_G6r-105" edge="1">
          <mxGeometry relative="1" as="geometry" />
        </mxCell>
        <mxCell id="En6Ea1ra5ksNc1CF_G6r-111" value="mean curvature: avg signed curvature over all angles" style="rounded=1;whiteSpace=wrap;html=1;fontFamily=Helvetica;fontSize=11;fontColor=default;labelBackgroundColor=default;" parent="1" vertex="1">
          <mxGeometry x="-120" y="710" width="120" height="60" as="geometry" />
        </mxCell>
        <mxCell id="En6Ea1ra5ksNc1CF_G6r-116" value="De Rham map - integrate kform over Simplex to get discrete k-form" style="rounded=1;whiteSpace=wrap;html=1;fontFamily=Helvetica;fontSize=11;fontColor=default;labelBackgroundColor=default;" parent="1" vertex="1">
          <mxGeometry x="610" y="920" width="120" height="60" as="geometry" />
        </mxCell>
        <mxCell id="En6Ea1ra5ksNc1CF_G6r-123" style="edgeStyle=none;rounded=0;orthogonalLoop=1;jettySize=auto;html=1;strokeColor=default;align=center;verticalAlign=middle;fontFamily=Helvetica;fontSize=11;fontColor=default;labelBackgroundColor=default;endArrow=classic;" parent="1" source="En6Ea1ra5ksNc1CF_G6r-119" target="En6Ea1ra5ksNc1CF_G6r-122" edge="1">
          <mxGeometry relative="1" as="geometry" />
        </mxCell>
        <mxCell id="En6Ea1ra5ksNc1CF_G6r-119" value="general laplacian" style="rounded=1;whiteSpace=wrap;html=1;fontFamily=Helvetica;fontSize=11;fontColor=default;labelBackgroundColor=default;" parent="1" vertex="1">
          <mxGeometry x="-770" y="160" width="120" height="60" as="geometry" />
        </mxCell>
        <mxCell id="En6Ea1ra5ksNc1CF_G6r-124" value="" style="edgeStyle=none;rounded=0;orthogonalLoop=1;jettySize=auto;html=1;strokeColor=default;align=center;verticalAlign=middle;fontFamily=Helvetica;fontSize=11;fontColor=default;labelBackgroundColor=default;endArrow=classic;" parent="1" source="En6Ea1ra5ksNc1CF_G6r-122" target="En6Ea1ra5ksNc1CF_G6r-97" edge="1">
          <mxGeometry relative="1" as="geometry" />
        </mxCell>
        <mxCell id="En6Ea1ra5ksNc1CF_G6r-122" value="&lt;div&gt;Harmonic functions&lt;/div&gt;&lt;div&gt;- Basis of Frequency functions on Manifolds&lt;br&gt;&lt;/div&gt;" style="rounded=1;whiteSpace=wrap;html=1;fontFamily=Helvetica;fontSize=11;fontColor=default;labelBackgroundColor=default;" parent="1" vertex="1">
          <mxGeometry x="-770" y="40" width="120" height="60" as="geometry" />
        </mxCell>
        <mxCell id="dsKGTwDM3gqNHKsCHxA4-1" value="Computation" style="rounded=1;whiteSpace=wrap;html=1;" vertex="1" parent="1">
          <mxGeometry x="920" y="760" width="120" height="60" as="geometry" />
        </mxCell>
      </root>
    </mxGraphModel>
  </diagram>
</mxfile>
